<svg width="33" height="38" viewBox="0 0 33 38" fill="none" xmlns="http://www.w3.org/2000/svg">
<path d="M26.9846 20.2083C26.9403 15.4076 31.0162 13.072 31.2026 12.9633C28.8942 9.68188 25.3163 9.23354 24.059 9.19779C21.054 8.88946 18.1391 10.951 16.6084 10.951C15.047 10.951 12.6898 9.22758 10.1492 9.27822C6.87988 9.32738 3.8214 11.1729 2.14397 14.0387C-1.31783 19.8821 1.264 28.4692 4.58067 33.1925C6.23977 35.5057 8.17843 38.0885 10.716 37.9977C13.1985 37.8979 14.1258 36.4545 17.1217 36.4545C20.09 36.4545 20.9608 37.9977 23.5488 37.9396C26.2131 37.8979 27.8905 35.6159 29.4916 33.2818C31.4088 30.6305 32.1788 28.0194 32.2094 27.8853C32.1467 27.8645 27.035 25.9623 26.9846 20.2083Z" fill="white"/>
<path d="M22.0959 6.09065C23.4311 4.4626 24.3447 2.24769 24.0911 0C22.1585 0.0834132 19.7417 1.30333 18.35 2.89563C17.1186 4.29876 16.0187 6.59858 16.3028 8.76136C18.4737 8.91925 20.7026 7.69337 22.0959 6.09065Z" fill="white"/>
</svg>
