<svg width="205" height="87" viewBox="0 0 205 87" fill="none" xmlns="http://www.w3.org/2000/svg">
<g filter="url(#filter0_d_847_3524)">
<path d="M3.94763 11.3525C3.94763 7.36474 6.94333 4.02787 10.9155 3.67531C24.6663 2.45478 57.8861 0 102.643 0C147.4 0 180.62 2.45478 194.371 3.67531C198.343 4.02787 201.339 7.36473 201.339 11.3525V69.1624C201.339 73.298 198.123 76.7166 193.994 76.9467C177.342 77.8748 135.609 80 102.643 80C69.6773 80 27.9447 77.8748 11.293 76.9467C7.16385 76.7166 3.94763 73.298 3.94763 69.1625V11.3525Z" fill="url(#paint0_linear_847_3524)"/>
</g>
<path d="M7.4259 13.7311C7.4259 9.71534 10.4636 6.36222 14.4657 6.03154C28.2385 4.89353 61.066 2.60889 102.643 2.60889C144.221 2.60889 177.048 4.89353 190.821 6.03154C194.823 6.36222 197.861 9.71534 197.861 13.7311V58.933C197.861 62.9837 194.787 66.3584 190.749 66.6749C178.094 67.6666 150.763 69.5654 126.991 69.5654C100.533 69.5654 36.7354 67.2133 14.9015 66.3775C10.7034 66.2168 7.4259 62.7675 7.4259 58.5664V13.7311Z" fill="url(#paint1_linear_847_3524)"/>
<path opacity="0.9" d="M10.9155 3.67531C6.94333 4.02787 3.94763 7.36473 3.94763 11.3525V30.4308L6.54269 12.696C7.06194 9.14737 9.90413 6.41446 13.4779 6.11371C26.6183 5.00786 60.0366 2.6087 102.643 2.6087C145.25 2.6087 178.668 5.00787 191.809 6.11371C195.382 6.41446 198.225 9.14737 198.744 12.696L201.339 30.4308V11.3525C201.339 7.36473 198.343 4.02788 194.371 3.67531C180.62 2.45478 147.4 0 102.643 0C57.8861 0 24.6663 2.45478 10.9155 3.67531Z" fill="url(#paint2_linear_847_3524)"/>
<path opacity="0.5" fill-rule="evenodd" clip-rule="evenodd" d="M63.078 47.8261C106.3 47.8261 141.339 33.2267 141.339 15.2174C141.339 10.9292 139.352 6.83436 135.742 3.08389C125.574 2.79349 114.462 2.60889 102.643 2.60889C61.066 2.60889 28.2385 4.89353 14.4657 6.03154C10.4636 6.36222 7.4259 9.71534 7.4259 13.7311V38.1439C21.6124 44.122 41.3071 47.8261 63.078 47.8261Z" fill="url(#paint3_linear_847_3524)"/>
<path opacity="0.5" d="M184.62 31.8034L188.792 33.0863L191.36 31.3757L192.643 27.0992L191.36 12.5589L161.339 7.82617L127.426 10.0001L126.122 21.3044L116.587 31.8034H135.2L141.618 30.0927L146.753 31.8034H184.62Z" fill="url(#paint4_linear_847_3524)"/>
<path opacity="0.3" fill-rule="evenodd" clip-rule="evenodd" d="M54.8172 39.1304C93.4771 39.1304 124.817 28.2295 124.817 14.7826C124.817 10.378 121.455 6.24662 115.574 2.68199C111.37 2.63462 107.056 2.60889 102.643 2.60889C61.066 2.60889 28.2385 4.89353 14.4657 6.03154C10.4636 6.36222 7.4259 9.71534 7.4259 13.7311V32.702C19.8935 36.6932 36.537 39.1304 54.8172 39.1304Z" fill="url(#paint5_linear_847_3524)"/>
<path opacity="0.8" fill-rule="evenodd" clip-rule="evenodd" d="M8.94979 11.6542C7.98934 12.9493 7.4259 14.5549 7.4259 16.2841V34.9979C19.8935 37.5637 36.537 39.1305 54.8172 39.1305C93.4771 39.1305 124.817 32.1228 124.817 23.4783C124.817 14.8339 93.4771 7.82617 54.8172 7.82617C37.272 7.82617 21.2344 9.26952 8.94979 11.6542Z" fill="url(#paint6_linear_847_3524)"/>
<path opacity="0.5" d="M136.991 65.6521L190.904 63.0434L194.382 61.3043L196.121 56.9565L194.382 42.1738L86.5563 39.1304L93.078 61.7391H118.295L126.991 59.9999L133.948 61.7391H185.252C186.991 61.7391 153.803 64.3478 136.991 65.6521Z" fill="url(#paint7_linear_847_3524)"/>
<path opacity="0.5" d="M114.817 67.3913C114.817 67.3913 17.4259 67.3913 11.7737 64.7826C6.12155 62.1739 13.0781 63.913 13.0781 63.913H17.4259L26.5563 63.4782H33.0781H39.165L43.0781 64.3478V61.7391L41.7737 59.1304L43.0781 56.5217L53.5129 54.3478H64.8172L69.165 53.0435H77.4259L81.3389 54.3478H87.4259L90.0346 64.3478H116.556L121.339 63.0435L148.73 64.3478H178.73L174.817 65.6522L155.252 67.3913H121.339V65.6522L119.165 64.3478L114.817 67.3913Z" fill="url(#paint8_linear_847_3524)"/>
<path opacity="0.8" fill-rule="evenodd" clip-rule="evenodd" d="M45.5121 53.0435L67.8607 53.913V54.7826H45.8614L42.105 56.6766C42.0027 57.9128 41.9407 59.0808 42.1984 61.1425C42.3287 62.1846 42.049 63.0949 41.4561 63.808C40.8977 64.4797 40.1336 64.8922 39.4095 65.1517C37.9919 65.6598 36.319 65.7264 35.207 65.6522L25.6868 65.2174L26.1216 63.913H35.2985L35.3449 63.9163C36.2625 63.9819 37.5616 63.9125 38.5293 63.5656C39.008 63.394 39.2983 63.1924 39.4501 63.0099C39.5673 62.8689 39.6535 62.6849 39.6099 62.3357C39.245 59.4162 39.455 56.573 39.6129 55.4677L39.7341 54.6193L45.5121 53.0435Z" fill="url(#paint9_linear_847_3524)"/>
<path fill-rule="evenodd" clip-rule="evenodd" d="M163.078 8.26112C163.078 8.26112 159.817 9.10485 159.6 9.13069C158.953 9.20779 157.358 10.0773 156.884 10.1599C156.646 10.2013 156.449 10.2412 156.298 10.2785C156.152 10.3143 156.089 10.3383 156.077 10.3426C156.076 10.3433 156.076 10.3432 156.076 10.3432L155.852 10.4552L155.602 10.4309C141.447 9.04995 121.733 12.3218 113.636 13.4785L105.687 13.0437L102.643 11.7394L113.451 10.435C121.585 9.27739 141.25 7.32085 155.564 8.68005C155.671 8.64431 155.78 8.61482 155.881 8.58988C156.086 8.5394 156.326 8.49167 156.585 8.44657C157.104 8.35621 157.738 8.26984 158.399 8.19114C159.723 8.0335 161.192 7.90199 162.142 7.8289L163.009 7.76221L163.078 8.26112Z" fill="#EF8808"/>
<path opacity="0.8" d="M115.252 29.5653L192.643 24.7827V33.0436H116.122L115.252 29.5653Z" fill="url(#paint10_linear_847_3524)"/>
<path opacity="0.8" d="M52.6433 69.5654C52.6433 69.5654 82.5486 70.493 100.824 71.4205C119.099 72.348 150.112 71.4205 150.112 71.4205L151.774 75.1306C151.774 75.1306 122.422 76.522 101.932 76.522C81.441 76.522 52.6433 74.2031 52.6433 74.2031V69.5654Z" fill="url(#paint11_linear_847_3524)"/>
<path opacity="0.8" d="M44.8171 57.8263L51.4176 56.9568L87.2776 56.522L89.165 63.4785H44.8171L44.8171 57.8263Z" fill="url(#paint12_linear_847_3524)"/>
<path opacity="0.8" d="M13.5128 25.8695L22.0546 25.4347L68.4617 25.2173L70.9041 28.6955H13.5128L13.5128 25.8695Z" fill="url(#paint13_linear_847_3524)"/>
<path opacity="0.52" d="M39.5997 15.924L45.812 15.1631L79.5625 14.7827L81.3389 20.8697H39.5997L39.5997 15.924Z" fill="url(#paint14_linear_847_3524)"/>
<path opacity="0.5" d="M147.426 11.685L153.638 10.272L187.389 9.56543L189.165 20.8698H147.426L147.426 11.685Z" fill="url(#paint15_linear_847_3524)"/>
<path opacity="0.5" d="M8.29541 54.1304L15.2519 57.1738L36.5563 55.6521L38.564 65.2173L14.8171 64.7825L10.0345 63.4782L8.29541 54.1304Z" fill="url(#paint16_linear_847_3524)"/>
<path opacity="0.4" d="M13.5128 39.9998L24.1254 38.2607L81.7826 37.3911L84.8172 51.3042H13.5128L13.5128 39.9998Z" fill="url(#paint17_linear_847_3524)"/>
<path opacity="0.5" d="M13.5128 13.6956L27.6197 13.2608L104.262 13.0435L108.295 16.5217H13.5128L13.5128 13.6956Z" fill="url(#paint18_linear_847_3524)"/>
<path opacity="0.2" d="M103.078 50.2176L117.185 49.7828L193.827 49.5654L197.861 53.0437H103.078L103.078 50.2176Z" fill="url(#paint19_linear_847_3524)"/>
<path fill-rule="evenodd" clip-rule="evenodd" d="M24.7818 10.8593L33.6833 9.97803V10.8526L24.8524 12.6188L17.561 11.761L10.9041 13.913L10.4694 11.2874L17.2905 9.97803L24.7818 10.8593Z" fill="url(#paint20_linear_847_3524)"/>
<path d="M114.382 67.8259L115.252 67.3911L117.861 64.7824L119.165 64.3477L121.339 65.652V67.4781L119.6 69.2172L116.469 69.565L114.382 69.2172V67.8259Z" fill="url(#paint21_linear_847_3524)"/>
<g opacity="0.7" filter="url(#filter1_f_847_3524)">
<path d="M7.40579 76.5636L5.92315 73.3713L5.67434 65.056L5.16069 16.9844C5.08328 14.3974 5.05471 13.4427 5.97403 13.261C7.353 12.9886 8.75082 13.3461 11.1109 14.9568C31.8795 29.1314 38.4714 33.0955 38.5958 37.2532C38.6511 39.101 39.1237 40.474 37.8239 42.3624C33.9245 48.0276 23.3065 56.8222 16.2165 61.9663C13.0519 64.3729 8.02561 66.3728 8.10855 69.1445L7.40579 76.5636Z" fill="#632500"/>
</g>
<path d="M7.40571 76.5634C6.5563 77.3912 4.07522 73.4264 4.07522 73.4264L3.82641 65.1111L3.0363 7.8003C2.95889 5.21332 4.77817 4.20331 5.69749 4.02167C7.07646 3.74923 8.47428 4.10671 10.8344 5.71747C31.603 19.892 38.3331 28.4758 38.4575 32.6334C38.5128 34.4813 39.0407 37.7021 37.7409 39.5905C33.8415 45.2557 19.583 56.0087 12.4931 61.1528C9.32847 63.5594 7.07396 65.4763 7.1569 68.2481C7.1569 68.2481 7.86065 76.5216 7.40571 76.5634Z" fill="url(#paint22_linear_847_3524)"/>
<path fill-rule="evenodd" clip-rule="evenodd" d="M28.3318 19.0654C35.6372 25.5706 38.3785 29.9939 38.4575 32.6334C38.5538 35.8536 29.6011 43.0615 21.3507 49.1192L9.89297 51.5209C11.6888 51.691 14.9838 51.9788 17.2196 52.1068C15.6145 53.2525 14.1119 54.3105 12.7994 55.2346L12.7992 55.2347C10.6379 56.7566 8.99199 57.9155 8.2525 58.5055C3.91699 61.9644 3.87405 63.7101 3.84931 64.7156C3.8457 64.8621 3.84248 64.993 3.82641 65.1111L3.0363 7.8003C2.95889 5.21332 4.77817 4.20331 5.69749 4.02167C7.07646 3.74923 8.47428 4.10671 10.8344 5.71747C17.5863 10.3257 22.8545 14.3429 26.8943 17.8094L20.9226 18.3623L19.1162 19.8035L11.7525 20.9486L19.6058 20.7136L20.9503 19.2862L28.3318 19.0654Z" fill="url(#paint23_linear_847_3524)"/>
<mask id="mask0_847_3524" style="mask-type:alpha" maskUnits="userSpaceOnUse" x="3" y="3" width="36" height="63">
<path fill-rule="evenodd" clip-rule="evenodd" d="M28.3318 19.0654C35.6372 25.5706 38.3785 29.9939 38.4575 32.6334C38.5538 35.8536 29.6011 43.0615 21.3507 49.1192L9.89297 51.5209C11.6888 51.691 14.9838 51.9788 17.2196 52.1068C15.6145 53.2525 14.1119 54.3105 12.7994 55.2346L12.7992 55.2347C10.6379 56.7566 8.99199 57.9155 8.2525 58.5055C3.91699 61.9644 3.87405 63.7101 3.84931 64.7156C3.8457 64.8621 3.84248 64.993 3.82641 65.1111L3.0363 7.8003C2.95889 5.21332 4.77817 4.20331 5.69749 4.02167C7.07646 3.74923 8.47428 4.10671 10.8344 5.71747C17.5863 10.3257 22.8545 14.3429 26.8943 17.8094L20.9226 18.3623L19.1162 19.8035L11.7525 20.9486L19.6058 20.7136L20.9503 19.2862L28.3318 19.0654Z" fill="url(#paint24_linear_847_3524)"/>
</mask>
<g mask="url(#mask0_847_3524)">
<path opacity="0.5" fill-rule="evenodd" clip-rule="evenodd" d="M-31.8038 27.9209C-34.0751 29.694 -34.1112 32.6138 -31.8844 34.4425L-7.1146 54.7836C-4.88776 56.6123 -1.24122 56.6574 1.03015 54.8843L26.2953 35.1618C28.5667 33.3888 28.6028 30.4689 26.3759 28.6402L1.60616 8.29914C-0.620683 6.47044 -4.26721 6.42536 -6.53859 8.19843L-31.8038 27.9209ZM-20.1427 30.2395C-20.8999 30.8305 -20.9119 31.8038 -20.1696 32.4134L-4.28399 45.4587C-3.54171 46.0683 -2.3262 46.0833 -1.56907 45.4923L14.6343 32.8437C15.3914 32.2527 15.4034 31.2794 14.6611 30.6698L-1.2245 17.6245C-1.96678 17.0149 -3.18228 16.9999 -3.93941 17.5909L-20.1427 30.2395Z" fill="#377F31"/>
</g>
<path opacity="0.5" fill-rule="evenodd" clip-rule="evenodd" d="M8.54378 4.40479C8.22447 4.39725 7.91623 4.4268 7.60891 4.4868C6.67759 4.66865 4.83429 5.67844 4.91162 8.26288L5.62566 60.9179C3.89546 62.8398 3.86747 63.9772 3.84931 64.7156C3.8457 64.8621 3.84248 64.993 3.82641 65.1111L3.0363 7.8003C2.95889 5.21332 4.77817 4.20331 5.69749 4.02167C6.5615 3.85097 7.43291 3.92756 8.54378 4.40479Z" fill="url(#paint25_linear_847_3524)"/>
<g opacity="0.7" filter="url(#filter2_f_847_3524)">
<path d="M198.005 76.0199L199.434 72.8035L199.545 64.4852L199.262 16.4117C199.297 13.8238 199.31 12.8687 198.388 12.7023C197.004 12.4528 195.613 12.8334 193.279 14.483C172.749 28.9998 166.223 33.0726 166.168 37.2318C166.143 39.0803 165.693 40.4609 167.024 42.3275C171.017 47.9273 181.779 56.5447 188.954 61.5706C192.158 63.9244 197.216 65.8408 197.179 68.6135L198.005 76.0199Z" fill="#632500"/>
</g>
<path d="M198.005 76.02C198.73 77.3908 201.283 72.8283 201.283 72.8283L201.394 64.51L201.234 7.19391C201.269 4.606 199.433 3.62628 198.511 3.45991C197.128 3.21035 195.736 3.59095 193.403 5.24059C172.872 19.7574 166.285 28.4515 166.229 32.6106C166.205 34.4591 165.73 37.6882 167.061 39.5548C171.054 45.1546 185.489 55.6699 192.663 60.6958C195.867 63.0496 198.153 64.9289 198.116 67.7017L198.005 76.02Z" fill="url(#paint26_linear_847_3524)"/>
<path fill-rule="evenodd" clip-rule="evenodd" d="M166.229 32.6105C166.285 28.4514 172.872 19.7573 193.403 5.24052C195.736 3.59088 197.127 3.21028 198.511 3.45984C199.433 3.62621 201.269 4.60594 201.234 7.19385L201.394 64.5099C201.376 64.3921 201.37 64.2613 201.364 64.1148C201.323 63.1098 201.251 61.3651 196.859 57.9785C196.11 57.4008 194.445 56.2693 192.258 54.7834C188.867 52.4788 184.222 49.3217 179.793 46.0563C181.88 46.015 186.082 45.8182 188.198 45.7103L177.872 44.6214C171.579 39.857 166.196 35.0937 166.229 32.6105Z" fill="url(#paint27_linear_847_3524)"/>
<mask id="mask1_847_3524" style="mask-type:alpha" maskUnits="userSpaceOnUse" x="166" y="3" width="36" height="62">
<path fill-rule="evenodd" clip-rule="evenodd" d="M166.229 32.6105C166.285 28.4514 172.872 19.7573 193.403 5.24052C195.736 3.59088 197.127 3.21028 198.511 3.45984C199.433 3.62621 201.269 4.60594 201.234 7.19385L201.394 64.5099C201.376 64.3921 201.37 64.2613 201.364 64.1148C201.323 63.1098 201.251 61.3651 196.859 57.9785C196.11 57.4008 194.445 56.2693 192.258 54.7834C190.931 53.8811 189.411 52.8481 187.787 51.7291C190.02 51.5642 193.31 51.2218 195.103 51.0219L183.607 48.8104C175.257 42.8902 166.186 35.8318 166.229 32.6105Z" fill="url(#paint28_linear_847_3524)"/>
</mask>
<g mask="url(#mask1_847_3524)">
<path opacity="0.5" fill-rule="evenodd" clip-rule="evenodd" d="M236.403 26.734C238.704 28.4692 238.788 31.388 236.592 33.2533L212.163 54.0021C209.966 55.8675 206.321 55.973 204.021 54.2378L178.432 34.9367C176.132 33.2015 176.047 30.2827 178.243 28.4174L202.673 7.66859C204.869 5.80325 208.514 5.69774 210.815 7.43293L236.403 26.734ZM224.782 29.2455C225.549 29.8239 225.577 30.7968 224.845 31.4186L209.178 44.7254C208.446 45.3472 207.23 45.3824 206.464 44.804L190.053 32.4256C189.286 31.8472 189.258 30.8743 189.99 30.2525L205.657 16.9457C206.389 16.3239 207.604 16.2887 208.371 16.8671L224.782 29.2455Z" fill="#377F31"/>
</g>
<path opacity="0.5" fill-rule="evenodd" clip-rule="evenodd" d="M195.67 3.89051C195.99 3.87762 196.299 3.90205 196.607 3.957C197.541 4.12338 199.401 5.10249 199.367 7.68785L199.525 60.3471C201.287 62.2401 201.334 63.3769 201.365 64.1148C201.371 64.2613 201.376 64.3921 201.394 64.51L201.234 7.19391C201.269 4.606 199.433 3.62628 198.511 3.45991C197.644 3.3035 196.774 3.39461 195.67 3.89051Z" fill="url(#paint29_linear_847_3524)"/>
<path opacity="0.1" d="M8.39731 4.34376C9.17142 3.98669 10.0186 3.75492 10.9155 3.67531C24.6663 2.45478 57.8861 0 102.643 0C147.4 0 180.62 2.45478 194.371 3.67531C194.811 3.71436 195.239 3.79003 195.652 3.89915C195.659 3.89632 195.665 3.8935 195.671 3.8907C195.734 3.86235 195.797 3.83533 195.858 3.8096C196.874 3.38549 197.694 3.31301 198.511 3.46043C198.511 3.46042 198.511 3.46044 198.511 3.46043C199.433 3.62689 201.269 4.60669 201.234 7.19444L201.242 10.1218C201.306 10.5231 201.339 10.9342 201.339 11.3525V44.7703L201.394 64.5105L201.339 68.6333V69.1625C201.339 69.3159 201.335 69.4683 201.326 69.6196L201.283 72.8288C201.283 72.8288 198.73 77.3913 198.005 76.0205L197.958 75.5966C196.822 76.3773 195.466 76.8647 193.994 76.9467C177.342 77.8748 135.609 80 102.643 80C69.6773 80 27.9447 77.8748 11.293 76.9467C9.91636 76.87 8.64119 76.4389 7.55285 75.7449C7.53778 76.2436 7.49314 76.5555 7.40573 76.5636C6.55633 77.3913 4.07525 73.4266 4.07525 73.4266L3.96189 69.6382C3.95243 69.4808 3.94763 69.3221 3.94763 69.1625L3.82644 65.1113L3.03633 7.80046C2.95892 5.21348 4.7782 4.20346 5.69751 4.02183C6.52318 3.8587 7.35561 3.92141 8.39731 4.34376Z" fill="url(#paint30_linear_847_3524)"/>
<defs>
<filter id="filter0_d_847_3524" x="0.469371" y="0" width="204.348" height="86.9565" filterUnits="userSpaceOnUse" color-interpolation-filters="sRGB">
<feFlood flood-opacity="0" result="BackgroundImageFix"/>
<feColorMatrix in="SourceAlpha" type="matrix" values="0 0 0 0 0 0 0 0 0 0 0 0 0 0 0 0 0 0 127 0" result="hardAlpha"/>
<feOffset dy="3.47826"/>
<feGaussianBlur stdDeviation="1.73913"/>
<feComposite in2="hardAlpha" operator="out"/>
<feColorMatrix type="matrix" values="0 0 0 0 0 0 0 0 0 0 0 0 0 0 0 0 0 0 0.3 0"/>
<feBlend mode="normal" in2="BackgroundImageFix" result="effect1_dropShadow_847_3524"/>
<feBlend mode="normal" in="SourceGraphic" in2="effect1_dropShadow_847_3524" result="shape"/>
</filter>
<filter id="filter1_f_847_3524" x="3.38672" y="11.4391" width="37.077" height="66.8635" filterUnits="userSpaceOnUse" color-interpolation-filters="sRGB">
<feFlood flood-opacity="0" result="BackgroundImageFix"/>
<feBlend mode="normal" in="SourceGraphic" in2="BackgroundImageFix" result="shape"/>
<feGaussianBlur stdDeviation="0.869565" result="effect1_foregroundBlur_847_3524"/>
</filter>
<filter id="filter2_f_847_3524" x="164.336" y="10.8932" width="36.9486" height="66.866" filterUnits="userSpaceOnUse" color-interpolation-filters="sRGB">
<feFlood flood-opacity="0" result="BackgroundImageFix"/>
<feBlend mode="normal" in="SourceGraphic" in2="BackgroundImageFix" result="shape"/>
<feGaussianBlur stdDeviation="0.869565" result="effect1_foregroundBlur_847_3524"/>
</filter>
<linearGradient id="paint0_linear_847_3524" x1="102.643" y1="0" x2="102.643" y2="76.5217" gradientUnits="userSpaceOnUse">
<stop stop-color="#E4BB36"/>
<stop offset="1" stop-color="#732D08"/>
</linearGradient>
<linearGradient id="paint1_linear_847_3524" x1="102.643" y1="2.60889" x2="102.643" y2="64.348" gradientUnits="userSpaceOnUse">
<stop stop-color="#F8B014"/>
<stop offset="1" stop-color="#D6761C"/>
</linearGradient>
<linearGradient id="paint2_linear_847_3524" x1="3.94763" y1="14.7826" x2="201.339" y2="14.7826" gradientUnits="userSpaceOnUse">
<stop stop-color="#FF9B30"/>
<stop offset="0.317304" stop-color="#FDDB6F"/>
<stop offset="0.715382" stop-color="#FED17B"/>
<stop offset="1" stop-color="#F39A4A"/>
</linearGradient>
<linearGradient id="paint3_linear_847_3524" x1="23.5129" y1="6.52193" x2="129.165" y2="44.7828" gradientUnits="userSpaceOnUse">
<stop stop-color="#EA8915"/>
<stop offset="1" stop-color="#FF9D06"/>
</linearGradient>
<linearGradient id="paint4_linear_847_3524" x1="113.378" y1="18.9737" x2="192.68" y2="20.9011" gradientUnits="userSpaceOnUse">
<stop stop-color="#F9C617"/>
<stop offset="0.419618" stop-color="#FCB216"/>
<stop offset="1" stop-color="#D36914"/>
</linearGradient>
<linearGradient id="paint5_linear_847_3524" x1="23.5129" y1="6.52193" x2="129.165" y2="44.7828" gradientUnits="userSpaceOnUse">
<stop stop-color="#F8C33D" stop-opacity="0.5"/>
<stop offset="1" stop-color="#FD9E04"/>
</linearGradient>
<linearGradient id="paint6_linear_847_3524" x1="23.5129" y1="9.03018" x2="127.08" y2="49.6616" gradientUnits="userSpaceOnUse">
<stop stop-color="#E76C10"/>
<stop offset="0.598958" stop-color="#F5940A"/>
<stop offset="1" stop-color="#FD9E04"/>
<stop offset="1" stop-color="#E56A0D"/>
</linearGradient>
<linearGradient id="paint7_linear_847_3524" x1="88.7302" y1="48.6956" x2="196.122" y2="52.1738" gradientUnits="userSpaceOnUse">
<stop stop-color="#F39C19"/>
<stop offset="0.201945" stop-color="#FFCC48"/>
<stop offset="0.539824" stop-color="#E98416"/>
<stop offset="1" stop-color="#D75A10"/>
</linearGradient>
<linearGradient id="paint8_linear_847_3524" x1="12.2085" y1="68.6957" x2="187.426" y2="68.6957" gradientUnits="userSpaceOnUse">
<stop stop-color="#C14C07"/>
<stop offset="0.15316" stop-color="#E0792C"/>
<stop offset="0.217989" stop-color="#FAC785"/>
<stop offset="0.356292" stop-color="#F4BF73"/>
<stop offset="0.442731" stop-color="#EB992C"/>
<stop offset="0.563746" stop-color="#F9C071"/>
<stop offset="0.604085" stop-color="#F8B26D"/>
<stop offset="0.644423" stop-color="#F7B05D"/>
<stop offset="0.730862" stop-color="#FAB15C"/>
<stop offset="0.885012" stop-color="#DF701F"/>
<stop offset="1" stop-color="#D25E11"/>
</linearGradient>
<linearGradient id="paint9_linear_847_3524" x1="26.1216" y1="65.6522" x2="68.2955" y2="65.6522" gradientUnits="userSpaceOnUse">
<stop stop-color="#C35311"/>
<stop offset="0.219923" stop-color="#AE4808"/>
<stop offset="0.32153" stop-color="#9F4000"/>
<stop offset="0.459425" stop-color="#AE4C01"/>
<stop offset="0.584619" stop-color="#CC630F"/>
<stop offset="1" stop-color="#DD840D"/>
</linearGradient>
<linearGradient id="paint10_linear_847_3524" x1="114.382" y1="33.0436" x2="195.252" y2="33.0436" gradientUnits="userSpaceOnUse">
<stop stop-color="#D59011"/>
<stop offset="0.528325" stop-color="#EE8106"/>
<stop offset="1" stop-color="#D25002"/>
</linearGradient>
<linearGradient id="paint11_linear_847_3524" x1="50.4281" y1="77.4495" x2="153.435" y2="77.4495" gradientUnits="userSpaceOnUse">
<stop stop-color="#80350D"/>
<stop offset="0.528325" stop-color="#924115"/>
<stop offset="1" stop-color="#843308"/>
</linearGradient>
<linearGradient id="paint12_linear_847_3524" x1="43.8629" y1="63.4785" x2="88.2372" y2="63.4785" gradientUnits="userSpaceOnUse">
<stop stop-color="#DF7822"/>
<stop offset="1" stop-color="#F29E2A"/>
</linearGradient>
<linearGradient id="paint13_linear_847_3524" x1="12.2779" y1="28.6956" x2="69.7035" y2="28.6956" gradientUnits="userSpaceOnUse">
<stop stop-color="#E3670F"/>
<stop offset="1" stop-color="#FDAB0A"/>
</linearGradient>
<linearGradient id="paint14_linear_847_3524" x1="38.7016" y1="20.8697" x2="80.4657" y2="20.8697" gradientUnits="userSpaceOnUse">
<stop stop-color="#E8901C"/>
<stop offset="1" stop-color="#FDAB0A"/>
</linearGradient>
<linearGradient id="paint15_linear_847_3524" x1="146.528" y1="20.8698" x2="188.292" y2="20.8698" gradientUnits="userSpaceOnUse">
<stop stop-color="#E8901C"/>
<stop offset="1" stop-color="#FDAB0A"/>
</linearGradient>
<linearGradient id="paint16_linear_847_3524" x1="8.79959" y1="63.4782" x2="47.4258" y2="59.9999" gradientUnits="userSpaceOnUse">
<stop stop-color="#8F3B0C"/>
<stop offset="0.45811" stop-color="#BB5213"/>
<stop offset="1" stop-color="#DB7123"/>
</linearGradient>
<linearGradient id="paint17_linear_847_3524" x1="11.9785" y1="51.3042" x2="83.3254" y2="51.3042" gradientUnits="userSpaceOnUse">
<stop stop-color="#E8901C"/>
<stop offset="1" stop-color="#FDAB0A"/>
</linearGradient>
<linearGradient id="paint18_linear_847_3524" x1="11.4733" y1="16.5217" x2="106.313" y2="16.5217" gradientUnits="userSpaceOnUse">
<stop stop-color="#E8901C"/>
<stop offset="1" stop-color="#FDAB0A"/>
</linearGradient>
<linearGradient id="paint19_linear_847_3524" x1="101.038" y1="53.0437" x2="195.878" y2="53.0437" gradientUnits="userSpaceOnUse">
<stop stop-color="#E8901C"/>
<stop offset="1" stop-color="#FDAB0A"/>
</linearGradient>
<linearGradient id="paint20_linear_847_3524" x1="10.9041" y1="12.1739" x2="33.9476" y2="11.3043" gradientUnits="userSpaceOnUse">
<stop stop-color="#B34C10"/>
<stop offset="1" stop-color="#D66709"/>
</linearGradient>
<linearGradient id="paint21_linear_847_3524" x1="114.73" y1="68.1737" x2="121.687" y2="66.7824" gradientUnits="userSpaceOnUse">
<stop stop-color="#A14300"/>
<stop offset="1" stop-color="#B95500"/>
</linearGradient>
<linearGradient id="paint22_linear_847_3524" x1="38.0508" y1="34.4951" x2="6.50943" y2="77.515" gradientUnits="userSpaceOnUse">
<stop stop-color="#D07A2D"/>
<stop offset="1" stop-color="#C47727"/>
</linearGradient>
<linearGradient id="paint23_linear_847_3524" x1="19.7855" y1="3.54009" x2="21.6119" y2="64.579" gradientUnits="userSpaceOnUse">
<stop stop-color="#F9F0B9"/>
<stop offset="1" stop-color="#F0DA9E"/>
</linearGradient>
<linearGradient id="paint24_linear_847_3524" x1="19.7855" y1="3.54009" x2="21.6119" y2="64.579" gradientUnits="userSpaceOnUse">
<stop stop-color="#F9F0B9"/>
<stop offset="1" stop-color="#F0DA9E"/>
</linearGradient>
<linearGradient id="paint25_linear_847_3524" x1="19.7855" y1="3.54009" x2="21.6119" y2="64.579" gradientUnits="userSpaceOnUse">
<stop stop-color="#DEB365"/>
<stop offset="1" stop-color="#D9B271" stop-opacity="0.2"/>
</linearGradient>
<linearGradient id="paint26_linear_847_3524" x1="166.667" y1="34.4653" x2="198.917" y2="76.9566" gradientUnits="userSpaceOnUse">
<stop stop-color="#D07A2D"/>
<stop offset="1" stop-color="#C47727"/>
</linearGradient>
<linearGradient id="paint27_linear_847_3524" x1="184.423" y1="2.73711" x2="183.596" y2="64.7472" gradientUnits="userSpaceOnUse">
<stop stop-color="#F9F0B9"/>
<stop offset="1" stop-color="#F0DA9E"/>
</linearGradient>
<linearGradient id="paint28_linear_847_3524" x1="184.423" y1="2.73711" x2="183.596" y2="64.7472" gradientUnits="userSpaceOnUse">
<stop stop-color="#F9F0B9"/>
<stop offset="1" stop-color="#F0DA9E"/>
</linearGradient>
<linearGradient id="paint29_linear_847_3524" x1="184.415" y1="3.21182" x2="183.6" y2="64.2726" gradientUnits="userSpaceOnUse">
<stop stop-color="#DEB365"/>
<stop offset="1" stop-color="#D9B271" stop-opacity="0.2"/>
</linearGradient>
<linearGradient id="paint30_linear_847_3524" x1="75.252" y1="28.2609" x2="85.6868" y2="70" gradientUnits="userSpaceOnUse">
<stop stop-color="#F4D326"/>
<stop offset="1" stop-color="#276EC1"/>
</linearGradient>
</defs>
</svg>
