<svg width="30" height="26" viewBox="0 0 30 26" fill="none" xmlns="http://www.w3.org/2000/svg">
<path d="M24.9715 3.96725C23.1709 3.12788 21.2214 2.51866 19.1907 2.16667C19.1549 2.16718 19.1209 2.18178 19.0959 2.20729C18.8522 2.65405 18.5679 3.23619 18.3784 3.68295C16.2244 3.35823 14.034 3.35823 11.8801 3.68295C11.6905 3.22265 11.4062 2.65405 11.149 2.20729C11.1355 2.18021 11.0948 2.16667 11.0542 2.16667C9.0235 2.51866 7.08754 3.12788 5.27343 3.96725C5.25989 3.96725 5.24635 3.98079 5.23281 3.99432C1.55043 9.50436 0.535072 14.8655 1.03598 20.1724C1.03598 20.1995 1.04952 20.2266 1.0766 20.2401C3.51347 22.0272 5.85557 23.1102 8.1706 23.8277C8.21121 23.8413 8.25182 23.8277 8.26536 23.8007C8.80689 23.0561 9.29426 22.2708 9.71395 21.445C9.74102 21.3909 9.71395 21.3367 9.65979 21.3232C8.88812 21.0253 8.15706 20.6733 7.43953 20.2672C7.38538 20.2401 7.38538 20.1589 7.426 20.1183C7.57492 20.01 7.72384 19.8881 7.87276 19.7798C7.89983 19.7527 7.94045 19.7527 7.96752 19.7663C12.6247 21.8918 17.6473 21.8918 22.2503 19.7663C22.2774 19.7527 22.318 19.7527 22.3451 19.7798C22.494 19.9017 22.6429 20.01 22.7918 20.1318C22.846 20.1724 22.846 20.2537 22.7783 20.2807C22.0743 20.7004 21.3297 21.0389 20.558 21.3367C20.5039 21.3502 20.4903 21.4179 20.5039 21.4586C20.9371 22.2844 21.4245 23.0696 21.9524 23.8142C21.9931 23.8277 22.0337 23.8413 22.0743 23.8277C24.4028 23.1102 26.745 22.0272 29.1818 20.2401C29.2089 20.2266 29.2224 20.1995 29.2224 20.1724C29.8181 14.0396 28.2341 8.71914 25.0256 3.99432C25.0121 3.98079 24.9985 3.96725 24.9715 3.96725ZM10.4179 16.9368C9.0235 16.9368 7.85922 15.6507 7.85922 14.0667C7.85922 12.4828 8.99642 11.1966 10.4179 11.1966C11.853 11.1966 12.9902 12.4963 12.9766 14.0667C12.9766 15.6507 11.8394 16.9368 10.4179 16.9368ZM19.854 16.9368C18.4596 16.9368 17.2953 15.6507 17.2953 14.0667C17.2953 12.4828 18.4325 11.1966 19.854 11.1966C21.2891 11.1966 22.4263 12.4963 22.4127 14.0667C22.4127 15.6507 21.2891 16.9368 19.854 16.9368Z" fill="#4B2519"/>
</svg>
