<svg width="157" height="156" viewBox="0 0 157 156" fill="none" xmlns="http://www.w3.org/2000/svg">
<path d="M78.5 0.5C35.4219 0.5 0.5 35.198 0.5 78C0.5 120.802 35.4219 155.5 78.5 155.5C121.578 155.5 156.5 120.802 156.5 78C156.5 35.198 121.578 0.5 78.5 0.5ZM105.959 81.4279L67.9736 107.121C66.6953 107.985 65.0405 108.077 63.6735 107.358C62.3066 106.64 61.4515 105.229 61.4515 103.693V52.3071C61.4515 50.7707 62.3066 49.3601 63.6735 48.6415C65.0405 47.9232 66.6953 48.0144 67.9736 48.8792L105.959 74.5721C107.1 75.3444 107.784 76.6276 107.784 78C107.784 79.3724 107.101 80.6556 105.959 81.4279Z" fill="#FFDC99"/>
</svg>
